<svg width="49" height="40" viewBox="0 0 49 40" fill="none" xmlns="http://www.w3.org/2000/svg">
<path d="M5.36577 21.1575H43.6856C44.4891 21.1575 45.1424 21.843 45.0724 22.6484C44.2325 32.2381 35.3544 39.7841 24.527 39.7841C13.6995 39.7841 4.82141 32.2381 3.98156 22.6484C3.90898 21.843 4.5622 21.1575 5.36577 21.1575Z" fill="#FF6633"/>
<path d="M31.4435 6.80832C31.8712 6.80832 32.2963 6.61544 32.5737 6.2453C33.9734 4.39463 36.633 3.24252 39.5128 3.24252C42.3927 3.24252 45.0523 4.39202 46.452 6.2453C46.9264 6.87349 47.8181 6.99339 48.4402 6.51639C49.0649 6.03938 49.1842 5.14272 48.7098 4.51714C46.7553 1.9314 43.3181 0.388306 39.5128 0.388306C35.7076 0.388306 32.2704 1.9314 30.3133 4.51714C29.8389 5.14532 29.9608 6.03938 30.5829 6.51639C30.8421 6.71449 31.1428 6.80832 31.4435 6.80832Z" fill="#414141"/>
<path d="M1.4735 6.80832C1.9012 6.80832 2.32632 6.61544 2.60368 6.2453C4.00344 4.39463 6.66299 3.24252 9.54287 3.24252C12.4228 3.24252 15.0823 4.39202 16.4821 6.2453C16.9564 6.87349 17.8481 6.99339 18.4702 6.51639C19.095 6.03938 19.2142 5.14272 18.7398 4.51714C16.7854 1.9314 13.3482 0.388306 9.54287 0.388306C5.73759 0.388306 2.3004 1.9314 0.343323 4.51714C-0.131042 5.14532 -0.00920868 6.03938 0.612907 6.51639C0.872124 6.71449 1.17281 6.80832 1.4735 6.80832Z" fill="#414141"/>
</svg>
