<svg width="65" height="44" viewBox="0 0 65 44" fill="none" xmlns="http://www.w3.org/2000/svg">
<path d="M45.4917 14.2617H17.9749C17.3978 14.2617 16.9288 14.7324 16.979 15.2855C17.5821 21.8703 23.9574 27.052 31.7324 27.052C39.5074 27.052 45.8826 21.8703 46.4857 15.2855C46.5378 14.7324 46.0688 14.2617 45.4917 14.2617Z" fill="#FF6633"/>
<path d="M26.7655 4.40841C26.4584 4.40841 26.1531 4.27596 25.9539 4.0218C24.9488 2.75101 23.039 1.95989 20.971 1.95989C18.903 1.95989 16.9932 2.74922 15.9881 4.0218C15.6475 4.45316 15.0071 4.53549 14.5604 4.20795C14.1118 3.88041 14.0262 3.2647 14.3668 2.83513C15.7703 1.05959 18.2385 0 20.971 0C23.7035 0 26.1717 1.05959 27.5771 2.83513C27.9177 3.26648 27.8302 3.88041 27.3835 4.20795C27.1974 4.34398 26.9814 4.40841 26.7655 4.40841Z" fill="#414141"/>
<path d="M48.2879 4.40841C47.9807 4.40841 47.6755 4.27596 47.4763 4.0218C46.4711 2.75101 44.5614 1.95989 42.4934 1.95989C40.4254 1.95989 38.5156 2.74922 37.5104 4.0218C37.1698 4.45316 36.5295 4.53549 36.0828 4.20795C35.6342 3.88041 35.5485 3.2647 35.8892 2.83513C37.2927 1.05959 39.7609 0 42.4934 0C45.2259 0 47.6941 1.05959 49.0994 2.83513C49.44 3.26648 49.3526 3.88041 48.9058 4.20795C48.7197 4.34398 48.5038 4.40841 48.2879 4.40841Z" fill="#414141"/>
<path d="M3.35197 30.0032L2.95178 31.0216C2.91641 31.1057 2.78797 31.1397 2.66885 31.0986C2.39708 31.0198 2.11601 30.8784 1.82192 30.6708C1.52968 30.4668 1.29887 30.2502 1.12762 30.0229C0.868886 29.6774 0.688332 29.3016 0.587817 28.9006C0.491025 28.4961 0.476134 28.1059 0.533837 27.7229C0.595263 27.3435 0.736728 26.9765 0.956371 26.6257C1.17788 26.2749 1.46267 25.976 1.82005 25.729C2.17558 25.482 2.56089 25.3138 2.97597 25.2225C3.39106 25.1312 3.79871 25.1169 4.19332 25.1813C4.59352 25.2458 4.97324 25.3836 5.33807 25.6002C5.70663 25.8149 6.0212 26.0977 6.27993 26.4432C6.4456 26.6651 6.5852 26.9461 6.69316 27.2808C6.80484 27.6155 6.86068 27.9287 6.85882 28.2223C6.86068 28.3404 6.7732 28.4299 6.67641 28.4335L5.54841 28.4639C5.44045 28.4639 5.3511 28.3673 5.3511 28.2294C5.35482 28.063 5.33249 27.8947 5.27851 27.7193C5.22453 27.5439 5.15566 27.399 5.07003 27.2844C4.79269 26.9157 4.42413 26.692 3.96251 26.6204C3.50461 26.547 3.08766 26.6436 2.70421 26.9085C2.32449 27.1716 2.0974 27.5225 2.02667 27.9645C1.95966 28.4031 2.0639 28.8111 2.34124 29.1799C2.42687 29.2944 2.54413 29.4018 2.69677 29.502C2.85126 29.6041 3.00203 29.681 3.15653 29.7293C3.3073 29.7759 3.39106 29.8958 3.35197 30.0032Z" fill="#414141"/>
<path d="M7.85467 28.8362C7.94774 28.7378 8.06687 28.7342 8.16738 28.8237L11.0637 31.3832C11.1661 31.4727 11.1698 31.5872 11.0767 31.6839L10.4252 32.364C10.3266 32.4678 10.2205 32.4714 10.1125 32.3765L8.15807 30.6493L7.47308 31.3653L8.95661 32.6772C9.06829 32.7757 9.07946 32.8938 8.97894 32.9976L8.441 33.5596C8.34794 33.6581 8.22322 33.6563 8.1134 33.5596L6.62988 32.2477L5.92627 32.9851L7.88073 34.7123C8.01847 34.834 8.02964 34.9915 7.91237 35.1114L7.30184 35.7504C7.21063 35.8453 7.08964 35.8471 6.98912 35.7576L4.03324 33.148C3.93087 33.0585 3.92342 32.9475 4.01649 32.8491L7.85467 28.8362Z" fill="#414141"/>
<path d="M14.1203 37.2575C14.1128 37.5421 14.0291 37.8088 13.8671 38.0576C13.56 38.5319 13.1617 38.804 12.6721 38.8756C12.1863 38.9489 11.6558 38.8165 11.0844 38.4728L9.07219 37.2665C8.97912 37.211 8.96237 37.1394 9.01821 37.0535L12.0821 32.3283C12.1379 32.2424 12.2123 32.2263 12.3036 32.2817L14.1668 33.3986C14.7122 33.7262 15.0528 34.1056 15.1906 34.5388C15.3283 34.9719 15.2501 35.4176 14.956 35.8722C14.7196 36.2373 14.3064 36.4772 13.8913 36.4897C14.0514 36.7188 14.1277 36.973 14.1203 37.2575ZM11.7861 37.356C12.1156 37.5547 12.4543 37.4813 12.6554 37.1716C12.8527 36.8673 12.7652 36.5541 12.4339 36.3572L11.5888 35.8507L10.941 36.8495L11.7861 37.356ZM12.7373 34.0823L12.19 34.9254L12.888 35.3442C13.1691 35.5124 13.4483 35.4534 13.6158 35.1938C13.7834 34.9343 13.7145 34.6694 13.4334 34.5012L12.7373 34.0823Z" fill="#414141"/>
<path d="M16.9648 35.1866C17.0169 35.0631 17.1249 35.0184 17.2533 35.0685L20.9035 36.4771C21.032 36.5272 21.0785 36.631 21.0264 36.7545L20.669 37.6119C20.615 37.7425 20.5163 37.7819 20.3805 37.73L17.916 36.7796L17.54 37.6817L19.4107 38.403C19.5503 38.4567 19.6043 38.5641 19.5503 38.6947L19.2543 39.4035C19.2022 39.527 19.0868 39.5682 18.9472 39.5145L17.0765 38.7932L16.6893 39.7221L19.1538 40.6725C19.3288 40.7405 19.3958 40.8819 19.3306 41.0359L18.9937 41.8413C18.9435 41.9612 18.8318 42.0042 18.7034 41.954L14.9787 40.5168C14.8503 40.4667 14.8019 40.3664 14.854 40.2429L16.9648 35.1866Z" fill="#414141"/>
<path d="M24.4772 37.3451C25.1138 37.4793 25.5885 37.7693 25.9012 38.2185C26.2139 38.6642 26.3051 39.1886 26.1655 39.7936C26.0296 40.3914 25.7188 40.8282 25.2404 41.1056C24.762 41.3794 24.2073 41.451 23.5689 41.3168L22.8541 41.1664L22.4967 42.729C22.4669 42.8578 22.3683 42.9205 22.225 42.8901L21.1789 42.6699C21.0449 42.6413 20.9853 42.5464 21.0132 42.4175L22.2287 37.0963C22.2566 36.9746 22.3627 36.903 22.4893 36.9298L23.0161 37.0408L23.5466 37.1536L24.4772 37.3451ZM23.8034 40.0102C24.0119 40.0549 24.2018 40.0245 24.3674 39.9243C24.5368 39.824 24.6429 39.6737 24.6894 39.4732C24.736 39.2728 24.7043 39.0938 24.5945 38.9345C24.4903 38.7716 24.3302 38.6678 24.1217 38.6248L23.4684 38.487L23.1519 39.8742L23.8034 40.0102Z" fill="#414141"/>
<path d="M31.7777 38.1311C31.908 38.1383 31.9899 38.2314 31.9825 38.3549L31.6697 43.7996C31.6623 43.932 31.5785 44.009 31.4408 44.0001L30.3724 43.9428C30.2253 43.9356 30.1471 43.8497 30.1546 43.7173L30.2476 42.0957L29.6259 42.0634L28.6375 43.6707C28.5501 43.8067 28.4942 43.8443 28.3732 43.8372L27.1242 43.771C26.9902 43.7638 26.9232 43.6313 26.9958 43.5186L28.1741 41.6679C27.597 41.2956 27.2843 40.6709 27.3271 39.9353C27.3625 39.3214 27.5914 38.8381 28.0177 38.4891C28.444 38.1365 28.9856 37.9808 29.6371 38.0148L31.5041 38.1132L31.7777 38.1311ZM30.3202 40.8392L30.404 39.3769L29.6241 39.3357C29.4063 39.325 29.2239 39.3822 29.0787 39.5075C28.9335 39.6328 28.8535 39.7975 28.8404 40.0069C28.8293 40.2163 28.8888 40.3953 29.0191 40.551C29.1531 40.7031 29.3281 40.7855 29.5403 40.7962L30.3202 40.8392Z" fill="#414141"/>
<path d="M38.3854 37.5529C38.4896 37.5403 38.5492 37.5869 38.5622 37.6907L39.2509 43.2178C39.264 43.3216 39.2156 43.3788 39.1132 43.3914L37.9387 43.5274C37.8344 43.5399 37.7749 43.4934 37.7618 43.3896L37.4882 41.1934L35.2173 41.4548L35.4909 43.6509C35.504 43.7547 35.4556 43.812 35.3532 43.8245L34.1824 43.9588C34.0744 43.9713 34.0149 43.9248 34.0018 43.8209L33.3131 38.2939C33.3001 38.1901 33.3485 38.1328 33.4564 38.1203L34.6272 37.986C34.7315 37.9735 34.791 38.02 34.8041 38.1238L35.0554 40.141L37.3263 39.8797L37.075 37.8625C37.0619 37.7587 37.1103 37.7014 37.2127 37.6889L38.3854 37.5529Z" fill="#414141"/>
<path d="M40.2981 38.9775C40.3316 38.5641 40.4395 38.1864 40.6182 37.8463C40.8006 37.5045 41.0519 37.1966 41.3739 36.9282C41.6941 36.6561 42.0608 36.4556 42.4777 36.3232C42.8947 36.1907 43.3135 36.1424 43.736 36.1782C44.1604 36.2086 44.5532 36.3124 44.9068 36.4843C45.2642 36.6543 45.5863 36.8959 45.8655 37.2092C46.1484 37.517 46.3569 37.8696 46.4946 38.2705C46.677 38.8021 46.7105 39.3337 46.597 39.8599C46.4834 40.3879 46.2433 40.8533 45.8655 41.2578C45.4932 41.6605 45.0278 41.9469 44.4713 42.1241C44.0543 42.2565 43.6355 42.3049 43.2111 42.2744C42.7849 42.2404 42.3921 42.1366 42.0347 41.9666C41.6811 41.7948 41.3609 41.5549 41.0798 41.2489C40.8025 40.9392 40.5922 40.5866 40.4563 40.1893C40.3167 39.7883 40.2664 39.3856 40.2981 38.9775ZM42.7179 40.66C43.1255 40.8569 43.5518 40.8819 43.9966 40.7405C44.4378 40.6009 44.7598 40.336 44.9664 39.9458C45.1712 39.5539 45.2047 39.1511 45.0576 38.727C44.9106 38.2992 44.6332 37.9895 44.2256 37.7926C43.8179 37.5958 43.3935 37.5653 42.9543 37.7049C42.5131 37.8446 42.1874 38.113 41.9826 38.505C41.7779 38.897 41.7462 39.3051 41.8933 39.7311C42.0385 40.157 42.3121 40.4631 42.7179 40.66Z" fill="#414141"/>
<path d="M50.4473 32.774C50.5478 32.7185 50.6725 32.7561 50.7377 32.8635L53.567 37.5815C53.6284 37.6818 53.5949 37.8124 53.4888 37.8697L52.5507 38.3887C52.4464 38.4478 52.318 38.4102 52.2566 38.31L51.3017 36.7188C51.1844 37.1036 50.8978 37.4705 50.4938 37.6961C49.8703 38.0415 49.2486 38.131 48.6306 37.9681C48.0108 37.8017 47.51 37.4025 47.1303 36.7689L46.2722 35.337C46.2108 35.2368 46.2387 35.1044 46.3374 35.0507L47.2681 34.5352C47.3835 34.4707 47.5193 34.503 47.5826 34.6104L48.4389 36.0387C48.7665 36.5846 49.297 36.7224 49.8665 36.4074C50.1532 36.2481 50.3282 36.044 50.4045 35.7935C50.4808 35.5429 50.4417 35.2851 50.2854 35.0238L49.4254 33.5884C49.364 33.4881 49.3956 33.3539 49.498 33.2984L50.4473 32.774Z" fill="#414141"/>
<path d="M59.7313 32.6003C59.8746 32.6343 59.9435 32.7631 59.8355 32.8562L58.8006 33.7458C58.7354 33.8013 58.6573 33.8263 58.5735 33.8156L55.8875 33.1462L55.2453 33.6975L56.7307 35.2958C56.8033 35.3745 56.7996 35.4479 56.7214 35.5142L55.8335 36.2784C55.7516 36.3482 55.6753 36.3446 55.6027 36.2659L51.7497 32.1188C51.6808 32.0436 51.6845 31.9702 51.7646 31.9004L52.6524 31.1362C52.7306 31.0699 52.8069 31.0735 52.8777 31.1487L54.2923 32.6719L54.7949 32.2405L54.5585 29.6989C54.5436 29.545 54.592 29.4823 54.7018 29.3875L55.7274 28.5069C55.8429 28.4084 55.9694 28.4836 55.9825 28.6429L56.2598 31.7483L59.7313 32.6003Z" fill="#414141"/>
<path d="M64.3454 26.6723C64.4888 26.7063 64.5465 26.8083 64.4534 26.9372L63.7703 27.8715C63.7033 27.9628 63.5748 28.0003 63.452 27.9717L62.6367 27.7444L61.4175 29.4107L61.9145 30.0658C61.9908 30.1571 61.9964 30.2896 61.9219 30.3898L61.2406 31.3205C61.1513 31.4422 61.034 31.4369 60.9447 31.3116L57.596 26.4217C57.5216 26.3071 57.5253 26.1765 57.5923 26.0852L58.1005 25.3907C58.1675 25.2994 58.3015 25.2565 58.4262 25.2869L64.3454 26.6723ZM60.6301 28.3762L61.356 27.3828L59.4779 26.8548L60.6301 28.3762Z" fill="#414141"/>
</svg>
