<svg width="126" height="126" viewBox="0 0 126 126" fill="none" xmlns="http://www.w3.org/2000/svg">
<path d="M24.5193 22.9964L10.4018 10.338C10.106 10.0728 9.63845 10.1083 9.39876 10.4302C6.53963 14.2426 7.31551 19.957 11.3041 23.5333C15.2926 27.1097 21.0564 27.2613 24.5367 24.0035C24.8293 23.7291 24.8151 23.2616 24.5193 22.9964Z" fill="white"/>
<path d="M97.6105 109.398L111.728 122.056C112.024 122.322 112.491 122.286 112.731 121.964C115.59 118.152 114.814 112.437 110.826 108.861C106.837 105.285 101.073 105.133 97.5931 108.391C97.3005 108.665 97.3147 109.133 97.6105 109.398Z" fill="white"/>
<path d="M113.539 47.5559L98.8573 35.5569C98.5497 35.3055 98.0843 35.3623 97.8596 35.6949C95.1779 39.6341 96.2145 45.3071 100.363 48.6971C104.511 52.0871 110.275 51.9748 113.603 48.5612C113.883 48.2737 113.847 47.8073 113.539 47.5559Z" fill="white"/>
<path d="M18.2986 89.2987L31.6529 75.8376C31.9327 75.5555 31.9208 75.0868 31.6114 74.8312C27.948 71.7834 22.2017 72.2701 18.4288 76.0732C14.6559 79.8763 14.2138 85.6251 17.2919 89.2653C17.5512 89.5714 18.0188 89.5808 18.2986 89.2987Z" fill="white"/>
<path d="M15.4579 58.6614C12.674 58.9571 9.93637 54.6696 9.34327 49.085C8.75018 43.5004 10.5262 38.7335 13.3101 38.4378C16.094 38.1421 18.8316 42.4297 19.4247 48.0143C20.0178 53.5989 18.2418 58.3658 15.4579 58.6614Z" fill="white"/>
<path d="M108.286 68.2907C111.07 67.995 113.807 72.2826 114.4 77.8672C114.993 83.4518 113.217 88.2187 110.433 88.5143C107.65 88.81 104.912 84.5225 104.319 78.9379C103.726 73.3532 105.502 68.5863 108.286 68.2907Z" fill="white"/>
<path d="M77.9278 15.4532C79.7382 16.7545 78.5485 21.5062 75.2706 26.0663C71.9926 30.6264 67.8678 33.2682 66.0574 31.9669C64.247 30.6655 65.4367 25.9139 68.7146 21.3537C71.9926 16.7936 76.1174 14.1518 77.9278 15.4532Z" fill="white"/>
<path d="M50.9886 92.9476C48.7721 92.7062 47.4682 87.9846 48.0762 82.4016C48.6841 76.8186 50.9738 72.4884 53.1902 72.7297C55.4067 72.9711 56.7106 77.6927 56.1027 83.2757C55.4947 88.8587 53.2051 93.1889 50.9886 92.9476Z" fill="white"/>
<path fill-rule="evenodd" clip-rule="evenodd" d="M52.165 45.3134C53.0924 46.6101 52.7922 48.4107 51.4944 49.335C48.5718 51.4166 44.6388 52.0346 40.9138 50.8242C37.1886 49.6139 34.3707 46.8017 33.2297 43.4008C32.7229 41.8903 33.5381 40.257 35.0506 39.7528C36.563 39.2487 38.2 40.0645 38.7068 41.5751C39.2452 43.1799 40.6499 44.676 42.6955 45.3406C44.7416 46.0055 46.7574 45.6208 48.1359 44.639C49.4337 43.7147 51.2376 44.0166 52.165 45.3134Z" fill="white"/>
<path fill-rule="evenodd" clip-rule="evenodd" d="M73.2884 80.7995C72.361 79.5028 72.6612 77.7022 73.959 76.7778C76.8816 74.6963 80.8146 74.0783 84.5396 75.2887C88.2647 76.499 91.0827 79.3112 92.2237 82.7121C92.7305 84.2226 91.9153 85.8559 90.4028 86.3601C88.8903 86.8642 87.2534 86.0484 86.7466 84.5378C86.2082 82.933 84.8034 81.4369 82.7579 80.7723C80.7117 80.1074 78.696 80.4921 77.3175 81.4739C76.0197 82.3982 74.2158 82.0963 73.2884 80.7995Z" fill="white"/>
<path fill-rule="evenodd" clip-rule="evenodd" d="M102.136 12.6122C101.881 11.0384 102.95 9.5586 104.523 9.30697C108.066 8.74031 111.864 9.93371 114.664 12.6728C117.464 15.4119 118.739 19.1831 118.251 22.7369C118.034 24.3154 116.578 25.4165 114.999 25.1964C113.42 24.9762 112.316 23.5181 112.533 21.9396C112.763 20.2627 112.169 18.2983 110.632 16.7942C109.094 15.2896 107.117 14.7388 105.446 15.0061C103.873 15.2578 102.391 14.186 102.136 12.6122Z" fill="white"/>
<path fill-rule="evenodd" clip-rule="evenodd" d="M57.349 113.026C58.4763 114.154 58.4749 115.979 57.3459 117.104C54.8037 119.636 51.025 120.889 47.152 120.305C43.279 119.721 40.0386 117.408 38.3561 114.24C37.6088 112.833 38.1456 111.088 39.5551 110.343C40.9646 109.598 42.713 110.135 43.4603 111.542C44.2543 113.037 45.885 114.283 48.0117 114.604C50.1392 114.925 52.0647 114.215 53.2639 113.021C54.3928 111.896 56.2218 111.899 57.349 113.026Z" fill="white"/>
<path d="M40.3619 14.979C39.6103 13.8585 39.9094 12.341 41.0299 11.5894L52.8986 3.62881C54.0191 2.87727 55.5367 3.17636 56.2882 4.29685L58.6356 7.79659C59.3871 8.91708 59.088 10.4347 57.9675 11.1862L46.0989 19.1468C44.9784 19.8984 43.4608 19.5993 42.7092 18.4788L40.3619 14.979Z" fill="white"/>
<path d="M67.1789 101.745C66.8911 100.427 67.7264 99.1253 69.0445 98.8376L83.0068 95.7893C84.3249 95.5015 85.6268 96.3368 85.9146 97.6549L86.8134 101.772C87.1012 103.09 86.2659 104.392 84.9478 104.68L70.9855 107.728C69.6674 108.016 68.3655 107.181 68.0778 105.862L67.1789 101.745Z" fill="white"/>
<path d="M81.2481 62.5707C80.2413 63.4688 78.697 63.3807 77.7989 62.3738L68.2859 51.709C67.3878 50.7021 67.476 49.1578 68.4828 48.2597L71.6276 45.4546C72.6345 44.5565 74.1787 44.6447 75.0768 45.6515L84.5898 56.3164C85.4879 57.3233 85.3997 58.8675 84.3929 59.7656L81.2481 62.5707Z" fill="white"/>
<path d="M14.8292 99.7789C16.159 99.5506 17.422 100.444 17.6502 101.773L20.0681 115.858C20.2964 117.188 19.4034 118.451 18.0737 118.679L13.9204 119.392C12.5907 119.621 11.3276 118.728 11.0994 117.398L8.68152 103.313C8.45326 101.983 9.34618 100.72 10.6759 100.492L14.8292 99.7789Z" fill="white"/>
</svg>
